<svg width="62" height="62" viewBox="0 0 62 62" fill="none" xmlns="http://www.w3.org/2000/svg">
<rect width="62" height="62" rx="4" fill="#E0E0E0"/>
<path d="M46.8779 35.8423V37.9345C46.8779 38.2817 46.8628 38.6319 46.8325 38.9791C46.4082 43.7562 43.0899 46.8778 38.3018 46.8778H25.2102C22.7858 46.8778 20.7403 46.0909 19.2705 44.6643C18.6947 44.1352 18.2099 43.5136 17.8311 42.8011C18.3311 42.1931 18.8917 41.5276 19.4372 40.8605C20.3615 39.7538 21.2555 38.6607 21.8161 37.9497C22.6495 36.9187 24.8465 34.205 27.8922 35.4785C28.5134 35.7362 29.0589 36.1 29.5589 36.4184C30.7862 37.2371 31.3014 37.4797 32.1651 37.0097C33.1197 36.4942 33.7409 35.4785 34.3925 34.4172C34.741 33.8548 35.0895 33.3105 35.4683 32.8102C37.1199 30.6574 39.6655 30.0813 41.7868 31.3548C42.8474 31.9915 43.7566 32.795 44.6051 33.6122C44.7869 33.7941 44.9687 33.9624 45.1354 34.1292C45.3627 34.3566 46.1203 35.1146 46.8779 35.8423" fill="#828282"/>
<path opacity="0.4" d="M38.317 16.6338H25.2103C20.0737 16.6338 16.6342 20.2269 16.6342 25.5771V37.9346C16.6342 39.7978 17.0584 41.4518 17.8312 42.8011C18.3312 42.1932 18.8918 41.5276 19.4373 40.8591C20.3616 39.7538 21.2556 38.6608 21.8162 37.9497C22.6496 36.9188 24.8467 34.205 27.8923 35.4785C28.5135 35.7363 29.059 36.1001 29.559 36.4185C30.7864 37.2372 31.3015 37.4797 32.1652 37.0082C33.1198 36.4943 33.7411 35.4785 34.3926 34.4158C34.7411 33.8548 35.0896 33.3105 35.4684 32.8102C37.12 30.6574 39.6656 30.0813 41.7869 31.3548C42.8476 31.9916 43.7567 32.7951 44.6052 33.6122C44.787 33.7942 44.9689 33.9625 45.1355 34.1292C45.3628 34.3551 46.1204 35.1132 46.8781 35.8424V25.5771C46.8781 20.2269 43.4385 16.6338 38.317 16.6338" fill="#828282"/>
<path d="M30.931 26.9117C30.931 29.0418 29.1567 30.8156 27.0278 30.8156C24.9004 30.8156 23.1261 29.0418 23.1261 26.9117C23.1261 24.7831 24.9004 23.0078 27.0278 23.0078C29.1567 23.0078 30.931 24.7831 30.931 26.9117" fill="#828282"/>
</svg>
